<?xml version="1.0" encoding="UTF-8" standalone="no"?>
<!-- Uploaded to: SVG Repo, www.svgrepo.com, Generator: SVG Repo Mixer Tools -->

<svg
   width="800px"
   height="800px"
   viewBox="0 0 24 24"
   fill="none"
   version="1.1"
   id="svg1"
   sodipodi:docname="lasso.svg"
   inkscape:version="1.4 (e7c3feb100, 2024-10-09)"
   xmlns:inkscape="http://www.inkscape.org/namespaces/inkscape"
   xmlns:sodipodi="http://sodipodi.sourceforge.net/DTD/sodipodi-0.dtd"
   xmlns="http://www.w3.org/2000/svg"
   xmlns:svg="http://www.w3.org/2000/svg">
  <defs
     id="defs1" />
  <sodipodi:namedview
     id="namedview1"
     pagecolor="#1af06b"
     bordercolor="#000000"
     borderopacity="0.25"
     inkscape:showpageshadow="2"
     inkscape:pageopacity="0.0"
     inkscape:pagecheckerboard="0"
     inkscape:deskcolor="#d1d1d1"
     inkscape:zoom="0.93"
     inkscape:cx="400"
     inkscape:cy="400"
     inkscape:window-width="1707"
     inkscape:window-height="995"
     inkscape:window-x="0"
     inkscape:window-y="0"
     inkscape:window-maximized="1"
     inkscape:current-layer="svg1" />
  <path
     id="path2"
     style="stroke-width:1.17049;fill:#000000"
     d="M 12.622266 0.35484375 C 9.6620743 0.35484375 6.9324485 1.1999653 4.9121484 2.6260547 C 2.894915 4.0499786 1.5026367 6.1265695 1.5026367 8.5482422 C 1.5026367 10.147716 2.113297 11.603348 3.1100391 12.814922 C 2.8371863 13.279021 2.6731641 13.815224 2.6731641 14.400703 C 2.6731641 16.518704 4.6663126 17.847901 6.6267773 17.909941 C 6.3658869 18.018445 6.0124409 18.121373 5.5334766 18.196523 C 2.8181046 18.622464 1.3369844 19.53143 0.66703125 20.690098 C 0.33539649 21.263637 0.25564696 21.815417 0.26759766 22.234453 C 0.27349696 22.441395 0.30150679 22.615349 0.33099609 22.745859 C 0.34580279 22.811407 0.36123501 22.866965 0.37494141 22.911445 C 0.37897981 22.924555 0.38289156 22.936768 0.38660156 22.948008 C 0.41379205 23.033805 0.45061601 23.115385 0.49582031 23.191465 C 0.58388794 23.340351 0.70189262 23.464269 0.83888672 23.558379 C 0.97686403 23.653544 1.1362662 23.719784 1.3083984 23.748574 C 1.4411554 23.771044 1.5789825 23.770806 1.7160352 23.745176 C 1.8520578 23.720128 1.9798433 23.671556 2.0950195 23.603906 C 2.2474523 23.514715 2.3739686 23.394268 2.4694336 23.254043 C 2.6406529 23.002739 2.7119536 22.688246 2.6531836 22.377832 C 2.6432696 22.324809 2.6297853 22.272944 2.6129883 22.222734 C 2.6111183 22.212434 2.6083821 22.193345 2.6076562 22.167715 C 2.6058773 22.10521 2.6149567 21.997867 2.6935547 21.861973 C 2.8440796 21.601656 3.4691034 20.88992 5.8962891 20.50916 C 7.8546704 20.201906 8.9811872 19.394863 9.4726758 18.338379 C 9.7022908 17.844783 9.7498136 17.380556 9.7406836 17.042051 C 9.7386946 16.968427 9.7339958 16.899823 9.7276758 16.836973 C 9.838287 16.738301 9.9431238 16.633287 10.041211 16.52209 C 10.870737 16.665824 11.735152 16.741699 12.622266 16.741699 C 15.582434 16.741699 18.312176 15.896613 20.332441 14.470488 C 22.349662 13.046588 23.741953 10.969868 23.741953 8.5482422 C 23.741953 6.1265695 22.349662 4.0499786 20.332441 2.6260547 C 18.312176 1.1999653 15.582434 0.35484375 12.622266 0.35484375 z M 12.622266 2.6958398 C 15.156844 2.6958398 17.401871 3.422844 18.982383 4.5385547 C 20.566055 5.6564308 21.400957 7.0912519 21.400957 8.5482422 C 21.400957 10.005267 20.566055 11.440054 18.982383 12.557988 C 17.401871 13.673699 15.156844 14.400703 12.622266 14.400703 C 12.019347 14.400703 11.431672 14.359538 10.864453 14.281348 C 10.789313 12.182075 8.7381352 10.889238 6.7698633 10.889238 C 6.0997814 10.889238 5.4540817 11.026884 4.8795703 11.281465 C 4.1962502 10.434031 3.8436328 9.4993821 3.8436328 8.5482422 C 3.8436328 7.0912519 4.6784994 5.6564308 6.2621484 4.5385547 C 7.8427424 3.422844 10.087688 2.6958398 12.622266 2.6958398 z M 6.7698633 13.230234 C 7.9967588 13.230234 8.5255664 13.984477 8.5255664 14.400703 C 8.5255664 14.509441 8.5016243 14.617275 8.4511523 14.725195 C 8.3572323 14.925934 8.1591856 15.147624 7.8375 15.318516 C 7.5485881 15.472084 7.1820863 15.57123 6.7698633 15.57123 C 5.5429679 15.57123 5.0141016 14.816929 5.0141016 14.400703 C 5.0141016 14.177373 5.1219091 13.9145 5.414707 13.673379 C 5.7219254 13.420319 6.1978568 13.230234 6.7698633 13.230234 z " />
</svg>
