<?xml version="1.0" encoding="UTF-8" standalone="no"?>
<!-- Uploaded to: SVG Repo, www.svgrepo.com, Generator: SVG Repo Mixer Tools -->

<svg
   width="512"
   height="512"
   viewBox="0 0 512 512"
   fill="none"
   version="1.1"
   id="svg1"
   sodipodi:docname="lasso.svg"
   inkscape:version="1.4 (e7c3feb100, 2024-10-09)"
   xmlns:inkscape="http://www.inkscape.org/namespaces/inkscape"
   xmlns:sodipodi="http://sodipodi.sourceforge.net/DTD/sodipodi-0.dtd"
   xmlns="http://www.w3.org/2000/svg"
   xmlns:svg="http://www.w3.org/2000/svg">
  <defs
     id="defs1" />
  <sodipodi:namedview
     id="namedview1"
     pagecolor="#1af06b"
     bordercolor="#000000"
     borderopacity="0.25"
     inkscape:showpageshadow="2"
     inkscape:pageopacity="0.0"
     inkscape:pagecheckerboard="0"
     inkscape:deskcolor="#d1d1d1"
     inkscape:zoom="0.65760931"
     inkscape:cx="15.206597"
     inkscape:cy="152.06597"
     inkscape:window-width="1707"
     inkscape:window-height="995"
     inkscape:window-x="0"
     inkscape:window-y="0"
     inkscape:window-maximized="1"
     inkscape:current-layer="svg1" />
  <path
     id="path2"
     style="fill:#000000;stroke-width:24.8073"
     d="m 269.57097,7.6936579 c -62.73823,0 -120.58987,17.9114901 -163.40807,48.1359991 -42.753201,30.178615 -72.261119,74.189833 -72.261119,125.514723 0,33.89923 12.942322,64.74985 34.067255,90.42793 -5.782831,9.83611 -9.259122,21.20037 -9.259122,33.60901 0,44.88887 42.242746,73.05984 83.792796,74.37471 -5.52934,2.29965 -13.02023,4.48115 -23.17139,6.07388 -57.549538,9.02737 -88.940369,28.29198 -103.139343,52.84877 -7.0286621,12.15556 -8.7188724,23.84997 -8.4655914,32.73101 0.1250154,4.38585 0.7186434,8.07265 1.3436681,10.83874 0.3138728,1.38926 0.64084,2.56669 0.9313433,3.50951 0.08558,0.27704 0.168521,0.53688 0.24719,0.7746 0.576272,1.81837 1.356724,3.54739 2.314781,5.15976 1.866504,3.15546 4.367493,5.78187 7.270945,7.77641 2.924295,2.01701 6.302657,3.42078 9.950822,4.03099 2.813653,0.47646 5.734753,0.47143 8.639445,-0.072 2.882864,-0.53083 5.591144,-1.56029 8.032179,-2.99407 3.230662,-1.89029 5.912047,-4.44306 7.935327,-7.41499 3.628815,-5.32616 5.139967,-11.9915 3.894398,-18.5704 -0.210022,-1.12374 -0.495889,-2.223 -0.851868,-3.2872 -0.03965,-0.21756 -0.0977,-0.62251 -0.11302,-1.16614 -0.03775,-1.3248 0.154717,-3.59977 1.820522,-6.47982 3.190249,-5.51675 16.436994,-20.60132 67.878722,-28.67114 41.50589,-6.51196 65.38126,-23.6164 75.79787,-46.00749 4.86653,-10.46133 5.87362,-20.30008 5.68021,-27.47436 -0.042,-1.56029 -0.14102,-3.01442 -0.27499,-4.34646 2.34438,-2.09125 4.56617,-4.31686 6.64502,-6.67363 17.58096,3.04626 35.90134,4.6544 54.70282,4.6544 62.73774,0 120.59184,-17.91074 163.4093,-48.136 42.75218,-30.17822 72.26037,-74.19219 72.26037,-125.51608 0,-51.32489 -29.50819,-95.336107 -72.26113,-125.51472 C 390.16281,25.605148 332.30873,7.6936579 269.57097,7.6936579 Z m 0,49.6150241 c 53.71781,0 101.29886,15.408112 134.7962,39.054461 33.56432,23.692247 51.25921,54.101807 51.25921,84.981237 0,30.88015 -17.69489,61.28899 -51.25921,84.98246 -33.49734,23.64638 -81.07839,39.05448 -134.7962,39.05448 -12.77824,0 -25.23341,-0.87232 -37.25504,-2.52961 -1.59254,-44.49197 -45.06514,-71.89233 -86.78066,-71.89233 -14.2017,0 -27.88664,2.91722 -40.06282,8.31279 -14.482275,-17.96042 -21.955645,-37.76935 -21.955645,-57.92779 0,-30.87943 17.694145,-61.28899 51.257965,-84.981237 33.49909,-23.646349 81.07842,-39.054461 134.7962,-39.054461 z M 145.53527,280.57442 c 26.00279,0 37.21034,15.9854 37.21034,24.8069 0,2.30458 -0.50668,4.59004 -1.57712,6.8772 -1.99052,4.2545 -6.1879,8.95302 -13.00573,12.57482 -6.12313,3.25477 -13.89083,5.35609 -22.62748,5.35609 -26.00279,0 -37.21157,-15.98664 -37.21157,-24.80812 0,-4.73328 2.28485,-10.30462 8.49048,-15.4149 6.51124,-5.36343 16.59807,-9.3921 28.72116,-9.3921 z" />
</svg>
