<?xml version="1.0" encoding="UTF-8" standalone="no"?>
<svg
   width="512"
   height="512"
   fill="currentColor"
   class="bi bi-triangle-fill"
   viewBox="0 0 512 512"
   version="1.1"
   id="svg1"
   sodipodi:docname="shapes.svg"
   xml:space="preserve"
   inkscape:version="1.4 (e7c3feb100, 2024-10-09)"
   xmlns:inkscape="http://www.inkscape.org/namespaces/inkscape"
   xmlns:sodipodi="http://sodipodi.sourceforge.net/DTD/sodipodi-0.dtd"
   xmlns="http://www.w3.org/2000/svg"
   xmlns:svg="http://www.w3.org/2000/svg"><defs
     id="defs1" /><sodipodi:namedview
     id="namedview1"
     pagecolor="#3dff16"
     bordercolor="#000000"
     borderopacity="0.25"
     inkscape:showpageshadow="2"
     inkscape:pageopacity="0.0"
     inkscape:pagecheckerboard="0"
     inkscape:deskcolor="#d1d1d1"
     inkscape:zoom="1.0275145"
     inkscape:cx="399.99434"
     inkscape:cy="257.90389"
     inkscape:window-width="1707"
     inkscape:window-height="995"
     inkscape:window-x="0"
     inkscape:window-y="0"
     inkscape:window-maximized="1"
     inkscape:current-layer="svg1" /><path
     id="path74"
     d="m 245.28377,29.269053 c -2.21805,0 -4.43775,1.360638 -6,4.082032 l -0.0469,0.08594 -105.09765,178.792968 h 86.74218 c 20.05133,0 37.65763,11.46949 46.59571,28.13476 3.29607,6.14562 5.38966,12.99887 6.00976,20.2461 0.12593,1.47176 0.22852,2.95149 0.22852,4.45312 v 24.80469 25.65039 h 130.30273 c 6.26782,0 9.65692,-5.84914 6.09766,-11.91406 l -44.9082,-76.41016 -9.53321,-16.2207 -9.34375,-15.89844 -95,-161.638668 -0.0488,-0.08594 c -1.56225,-2.721394 -3.78,-4.082032 -5.99804,-4.082032 z m 165.58593,199.666007 32.42579,55.17188 v 0.002 c 17.59504,29.95388 -4.43345,69.89453 -39.27735,69.89453 H 273.71541 v 58.42774 c 21.41339,38.28067 62.26608,64.08984 109.41601,64.08984 69.45372,0 125.3711,-55.91738 125.3711,-125.37109 0,-59.90253 -41.63271,-109.64184 -97.63282,-122.21485 z M 20.379472,251.06397 c -7.964113,0 -13.9999998,6.03589 -13.9999998,14 v 200.5 c 0,7.96411 6.0358868,14 13.9999998,14 H 220.88142 c 7.96412,0 14,-6.03589 14,-14 v -53.41015 -58.1504 -19.24218 -19.24219 -25.37109 -25.08399 c 0,-7.96411 -6.03588,-14 -14,-14 H 111.31306 88.9908 66.672441 Z" /></svg>
